PathFileType	4	(X/Y/Z)	D:\TRACE\v60_Jaco2_6-2-23\BothDRS_Motion3_9-v60.trc
DataRate	CameraRate	NumFrames	NumMarkers	Units	OrigDataRate	OrigDataStartFrame	OrigNumFrames
100.00	100.00	      42	9	mm	100.00	1751	      7000
Frame#	Time	front left toe			Front right toe			aft left toe			aft right toe			Arm			FL body			FR body			AL Body			AR Body			
		X1	Y1	Z1	X2	Y2	Z2	X3	Y3	Z3	X4	Y4	Z4	X5	Y5	Z5	X6	Y6	Z6	X7	Y7	Z7	X8	Y8	Z8	X9	Y9	Z9	

1751	17.500	-184.79213	17.30704	-186.82896	222.26523	12.06797	-214.37129	-132.74925	20.02594	422.13690	192.60989	20.76774	429.12885	26.91679	1131.90930	-607.73169	-64.84097	509.08075	-371.51083	93.78010	506.96698	-377.86380	-21.50315	572.67334	569.66718	129.04218	560.88678	563.12683	
1752	17.510	-181.20244	20.55442	-182.60046	222.37517	12.01331	-214.09384	-132.71213	20.27520	422.06448	190.33269	24.37553	432.69531	27.03420	1131.53601	-609.43896	-64.83441	509.59232	-372.37106	93.92486	507.74286	-378.80814	-20.01348	573.45135	569.06354	130.94803	561.72302	563.03741	
1753	17.520	-177.82176	26.11050	-180.35983	222.17502	11.73631	-214.68071	-132.69458	20.23591	422.05359	187.38460	32.90497	433.98056	26.89559	1131.01880	-610.42780	-64.54327	509.71542	-372.92896	94.48238	507.68713	-379.25180	-18.80374	574.20056	568.31403	131.73769	562.28168	561.72327	
1754	17.530	-177.56131	37.39248	-182.11417	222.05557	11.41768	-214.51042	-132.70372	20.20436	421.94470	187.20787	42.26913	433.58978	27.38816	1130.52917	-610.78003	-64.32442	509.45984	-373.32019	94.10305	507.48523	-379.66895	-18.01457	574.85962	567.82898	132.72101	562.87903	561.01575	
1755	17.540	-177.87317	46.65612	-182.11288	221.90715	11.20121	-214.47668	-132.70499	20.39413	422.02029	187.67670	53.93328	431.72745	27.96075	1130.66687	-611.29083	-63.79124	508.97455	-373.65347	95.05981	506.81470	-380.25800	-17.64814	575.11957	567.49768	133.25540	563.29846	560.67169	
1756	17.550	-178.27138	57.80566	-184.24739	221.73730	11.08317	-214.47255	-132.96144	20.21161	421.96558	191.06036	64.80565	429.45792	28.46534	1130.69006	-611.80933	-63.34787	508.60623	-374.07794	95.57537	506.39685	-380.55887	-17.54919	575.06964	567.16693	133.59607	563.26257	560.51904	
1757	17.560	-178.46123	69.69430	-186.08696	221.55258	11.02497	-214.50035	-133.31047	20.12732	421.94791	194.67740	75.97523	426.99222	28.82236	1130.28162	-612.20197	-62.92110	508.33881	-374.47443	96.01414	506.12344	-380.74725	-17.59190	574.78229	566.85608	133.43262	562.83246	560.35681	
1758	17.570	-177.83328	80.59950	-187.21930	221.60286	11.00156	-214.47610	-134.06580	20.33079	422.39432	199.34721	87.08457	425.07446	29.82758	1129.66309	-612.48993	-62.55372	508.18234	-374.81467	96.24154	505.83643	-381.04193	-17.90302	574.31732	566.30347	132.92383	562.37823	560.14032	
1759	17.580	-177.57634	91.77580	-189.03966	221.51971	10.95251	-214.48253	-134.34193	20.48315	422.07220	202.03819	97.89906	422.93307	31.39341	1129.09961	-612.32690	-62.36446	508.04132	-374.97214	96.56029	505.55316	-381.28592	-18.28103	573.83710	566.18945	133.05331	562.00006	560.06262	
1760	17.590	-177.14252	102.37476	-190.43057	221.35579	10.85677	-214.46790	-134.20381	20.02590	421.93420	203.73773	108.17955	421.06723	32.65253	1128.91333	-612.20776	-62.22514	507.86343	-375.11304	96.68806	505.24228	-381.30032	-18.42384	573.57281	566.18573	132.74707	561.71533	560.15784	
1761	17.600	-176.89488	112.58320	-192.05238	221.34074	10.83353	-214.39137	-134.36969	20.03241	421.94861	204.48453	118.15335	419.31427	33.36015	1129.12463	-612.37030	-62.11840	507.58344	-375.26825	96.74617	504.99432	-381.33688	-18.65554	573.45654	566.11658	132.47919	561.56256	560.20032	
1762	17.610	-176.73595	121.72441	-193.09563	221.31740	10.93270	-214.22911	-134.63307	19.92558	421.92538	206.84778	128.59824	418.50949	34.46788	1128.97925	-612.21014	-62.01045	507.33496	-375.40363	96.82072	504.74020	-381.35150	-19.30784	573.50293	566.05719	131.99292	561.43658	560.21423	
1763	17.620	-176.66989	129.57913	-194.03065	222.78076	11.38782	-213.73853	-135.34082	20.23108	421.98746	206.56844	136.61098	417.20023	35.14622	1128.83459	-612.06012	-61.79800	506.77985	-375.23837	96.82900	504.34702	-381.13214	-20.11636	573.55310	566.14148	131.57983	561.26099	560.37805	
1764	17.630	-176.84631	136.49547	-194.99141	222.60654	11.35487	-213.58234	-135.41425	20.19353	422.02170	207.39774	143.17279	416.05820	35.30729	1128.53125	-612.08838	-61.68682	506.68695	-375.18259	97.03478	504.05164	-380.78522	-20.65629	573.53717	566.18018	130.88879	561.50171	561.33026	
1765	17.640	-177.21680	142.09705	-195.94876	222.40813	11.29331	-213.48064	-135.49980	20.22326	421.92087	208.95070	147.78241	415.23468	35.18385	1128.09192	-612.36292	-61.50443	506.79016	-375.17493	97.18399	504.00601	-380.44534	-21.20230	573.69708	566.31995	130.41539	561.41821	561.58472	
1766	17.650	-177.87965	145.61763	-196.73181	222.20688	11.17379	-213.46291	-135.58891	20.16378	421.85922	209.92400	149.67741	414.73700	35.50189	1127.42505	-612.50751	-61.32117	506.91980	-375.19424	97.40754	503.79129	-380.17328	-22.54252	573.69128	566.34875	129.69016	561.36664	561.86176	
1767	17.660	-178.41559	145.53958	-197.05055	221.94910	11.05697	-213.48337	-135.76207	20.10452	421.77362	211.28954	149.37439	414.93710	35.93071	1126.99426	-612.48328	-61.29138	506.93326	-375.05563	97.47401	503.80887	-379.84674	-23.48829	573.66620	566.49683	128.64780	561.21918	561.41156	
1768	17.670	-178.37741	142.24583	-196.82028	221.33347	11.19517	-213.25417	-135.85750	20.02553	421.81332	211.01808	146.33295	415.10074	36.17267	1126.94641	-612.44763	-61.34711	506.86862	-374.83679	97.31454	503.77576	-379.69669	-24.60101	573.82678	566.79358	125.74400	561.65021	561.88251	
1769	17.680	-177.50293	137.16895	-196.54735	221.25996	11.28331	-213.12242	-136.05835	19.86033	421.75507	211.02707	142.80067	415.41193	36.75834	1127.07373	-612.17499	-61.39921	506.72394	-374.39474	97.29646	503.79663	-379.49371	-25.43141	573.91211	567.09460	126.00485	561.59552	562.79504	
1770	17.690	-176.73653	131.83722	-196.57089	221.08440	11.28650	-213.08473	-136.23427	19.67703	421.73166	210.54005	138.02617	415.52316	37.40505	1127.47913	-611.64691	-61.55432	506.75589	-374.29849	97.23137	503.84802	-379.24957	-26.63735	573.93658	567.30853	125.01445	561.66626	563.12555	
1771	17.700	-175.86972	126.18037	-197.25880	220.85789	11.19805	-213.12300	-136.49503	19.54460	421.69391	208.80310	132.00031	415.73193	37.58505	1128.12537	-611.08374	-61.70444	506.79315	-374.35318	97.28308	503.91345	-378.92807	-27.76300	573.73975	567.28918	124.24918	561.68317	563.46271	
1772	17.710	-175.70239	120.53506	-198.05836	220.67241	11.10423	-213.13304	-136.66464	18.73979	421.81482	209.11676	126.08500	415.82669	37.35439	1128.70374	-610.44366	-61.80411	506.81979	-374.42535	96.48395	504.10840	-378.13071	-29.12593	573.55688	567.31024	123.38767	561.20947	563.10968	
1773	17.720	-175.77086	114.22338	-198.90067	220.44725	10.98842	-213.14893	-136.74263	18.97895	421.52679	208.79333	119.60828	415.37390	37.21451	1128.96155	-609.98157	-61.91592	506.69873	-374.26807	96.48373	503.93689	-378.13812	-30.14518	573.42352	567.18933	122.16592	560.96973	563.27148	
1774	17.730	-175.76543	107.29948	-200.04228	220.18582	10.90800	-213.14650	-137.36868	19.08885	421.58762	208.41791	112.69024	414.52295	36.95615	1129.03357	-609.84930	-62.04582	506.51489	-374.20245	96.22780	503.87650	-377.89999	-31.63524	573.11389	567.46790	120.83386	561.04608	564.14124	
1775	17.740	-176.22858	100.15931	-200.95103	219.94504	10.83157	-213.16383	-137.46011	18.97079	421.55136	208.45695	105.30865	413.88794	36.66809	1128.79785	-609.78809	-62.29480	506.52588	-374.18008	95.88533	503.88846	-377.78568	-33.06602	572.85480	567.49628	119.30782	560.78461	564.37610	
1776	17.750	-176.25447	92.71679	-201.60240	219.73283	10.88409	-213.05301	-137.13234	18.55348	421.39191	207.49113	97.06411	413.22009	36.15899	1128.51416	-609.78033	-62.55754	506.60614	-374.26190	96.09718	504.11774	-377.79706	-33.88143	572.82190	567.59448	118.36060	560.56219	564.75659	
1777	17.760	-176.58446	84.61321	-202.40555	219.63329	11.03038	-212.82846	-137.25951	18.55928	421.34509	206.89525	88.79501	413.24097	36.05225	1128.21851	-609.80450	-62.77208	506.66214	-374.31158	95.97750	504.23834	-377.67648	-35.23849	572.61566	567.58826	117.19183	560.44531	564.85431	
1778	17.770	-176.93977	76.14315	-202.76831	219.45152	11.08131	-212.76627	-137.45511	18.41079	421.26120	206.06958	80.90764	413.25394	35.79197	1128.11597	-609.81635	-63.43413	506.67450	-374.53302	94.74563	504.20285	-377.23380	-36.68764	572.52502	567.57397	116.65630	560.33337	564.88928	
1779	17.780	-177.82178	67.44558	-202.32933	219.36644	11.12420	-212.71057	-137.59256	18.22669	421.26663	205.11160	72.64690	413.22586	35.54410	1128.15918	-609.82800	-63.68572	506.40012	-374.66537	94.24831	504.02020	-377.39285	-37.77719	572.60358	567.33521	115.23405	560.43701	564.77435	
1780	17.790	-178.51501	58.90631	-202.00005	219.18768	11.09794	-212.69339	-137.80952	18.07587	421.28812	203.68390	64.79488	413.20090	35.30127	1128.23352	-609.83105	-64.05213	506.04053	-374.75870	93.90549	503.63541	-377.64050	-39.13529	572.73730	567.19177	114.00661	560.52032	564.78760	
1781	17.800	-178.65221	49.53416	-200.89745	220.49512	11.62554	-212.36632	-137.90009	17.93790	421.29977	203.14615	57.48579	413.34903	34.88581	1128.16577	-609.97546	-64.83518	505.96091	-375.14847	94.20788	503.34418	-377.79800	-40.35281	572.85925	567.00378	112.92770	560.58740	564.73456	
1782	17.810	-179.95953	42.29092	-200.51753	220.24475	11.63091	-212.39136	-138.58357	18.12046	421.94330	202.03882	50.12112	413.61359	34.64511	1127.97876	-610.23212	-65.22472	505.70880	-375.21744	93.37153	503.31314	-377.51550	-41.83315	572.86017	566.81525	112.06875	560.72113	564.65009	
1783	17.820	-181.40022	35.43141	-200.35544	218.91719	11.41698	-212.53166	-138.67638	18.00710	421.92453	201.02467	43.18384	413.78632	34.09559	1127.55334	-610.78503	-65.69276	505.50830	-375.38062	92.47661	503.22458	-377.71722	-43.09609	572.92920	566.62671	111.38571	560.83661	564.04663	
1784	17.830	-183.07787	29.15590	-200.36063	218.80228	11.55098	-212.50047	-139.04182	17.89283	421.85699	199.33324	36.28700	413.14316	33.43419	1126.92639	-611.27313	-66.32730	505.23782	-375.74017	91.86066	503.03174	-377.92331	-44.27000	573.01038	566.45337	109.00645	560.91638	564.18256	
1785	17.840	-184.63988	22.91037	-200.52620	218.75694	11.64878	-212.43095	-139.14355	17.87045	421.36530	198.25778	30.69382	413.89325	32.39968	1126.62549	-611.91370	-66.81987	505.04007	-375.93344	92.05875	502.77783	-378.28973	-45.29536	573.11731	566.10968	108.23135	561.08490	563.87744	
1786	17.850	-186.27538	16.69163	-200.82933	218.79372	11.77016	-212.30728	-139.62590	17.84850	421.27353	197.27905	24.27731	413.58487	31.65948	1126.04138	-612.58295	-67.42193	504.74139	-376.42801	91.55189	502.49078	-378.50977	-47.03847	573.23425	565.64252	106.61192	561.38501	563.68756	
1787	17.860	-186.86267	13.41184	-202.46875	219.97296	12.15364	-211.96341	-139.78104	17.75822	421.21060	196.38786	20.47618	411.77136	30.68369	1125.63025	-613.39813	-68.24757	504.58737	-376.99994	90.67647	502.30051	-379.02560	-48.39366	573.69873	565.03870	105.51319	561.65240	563.31604	
1788	17.870	-188.61859	14.57783	-203.83850	218.73270	11.87629	-212.22270	-140.07822	17.79932	421.05539	197.39030	19.24275	412.75137	30.37334	1125.33716	-614.02460	-68.85807	504.71964	-377.40329	90.10303	502.42270	-379.32614	-50.03864	574.35742	564.67328	103.94954	562.48169	562.94281	
1789	17.880	-188.90846	12.61896	-202.82878	219.89281	12.30203	-211.88530	-138.83873	17.40115	421.33646	197.18425	19.64389	411.03680	29.60179	1125.29309	-615.06421	-69.50584	504.86099	-377.82700	89.50565	502.59558	-379.41678	-51.76337	575.77826	564.44226	100.90248	564.10162	562.83789	
1790	17.890	-188.81894	11.42515	-201.78427	218.00667	14.62303	-212.22639	-140.31702	20.24032	421.19565	197.17229	19.68347	413.11227	29.26763	1125.49805	-615.94568	-70.06020	505.05777	-377.89651	88.94823	502.77692	-379.47653	-53.26949	576.98010	564.22241	100.40723	565.52759	562.74976	
1791	17.900	-188.91127	11.35634	-202.56270	213.41051	16.92942	-209.28529	-139.26451	23.10190	423.26917	196.06036	19.17526	412.42999	28.57577	1125.69458	-617.33624	-70.46073	505.57852	-378.23813	88.66281	503.61481	-379.57001	-54.54482	577.58136	563.75629	99.13577	566.12323	562.27710	
1792	17.910	-188.98668	11.80947	-202.75966	211.27394	20.43806	-204.90231	-137.62215	28.67772	424.89435	195.80954	19.25814	412.04083	28.08073	1125.67456	-617.83099	-71.04671	506.04797	-378.90280	88.09701	504.15442	-379.95258	-56.57473	577.90070	563.27667	96.26743	566.56964	561.95087	
